<?xml version="1.0" encoding="UTF-8" standalone="no"?>
<!-- Created with Inkscape (http://www.inkscape.org/) -->

<svg
   xmlns:dc="http://purl.org/dc/elements/1.1/"
   xmlns:cc="http://creativecommons.org/ns#"
   xmlns:rdf="http://www.w3.org/1999/02/22-rdf-syntax-ns#"
   xmlns:svg="http://www.w3.org/2000/svg"
   xmlns="http://www.w3.org/2000/svg"
   xmlns:sodipodi="http://sodipodi.sourceforge.net/DTD/sodipodi-0.dtd"
   xmlns:inkscape="http://www.inkscape.org/namespaces/inkscape"
   width="500"
   height="360"
   viewBox="0 0 132.29167 95.250004"
   version="1.1"
   id="svg8"
   inkscape:version="0.92.2 (5c3e80d, 2017-08-06)"
   sodipodi:docname="LinqCheck.svg">
  <defs
     id="defs2" />
  <sodipodi:namedview
     id="base"
     pagecolor="#ffffff"
     bordercolor="#666666"
     borderopacity="1.0"
     inkscape:pageopacity="0.0"
     inkscape:pageshadow="2"
     inkscape:zoom="1.4"
     inkscape:cx="222.762"
     inkscape:cy="196.46443"
     inkscape:document-units="mm"
     inkscape:current-layer="g1378"
     showgrid="false"
     units="px"
     inkscape:window-width="1842"
     inkscape:window-height="1051"
     inkscape:window-x="69"
     inkscape:window-y="-9"
     inkscape:window-maximized="1"
     scale-x="0.8"
     fit-margin-top="10"
     fit-margin-bottom="0.5" />
  <metadata
     id="metadata5">
    <rdf:RDF>
      <cc:Work
         rdf:about="">
        <dc:format>image/svg+xml</dc:format>
        <dc:type
           rdf:resource="http://purl.org/dc/dcmitype/StillImage" />
        <dc:title></dc:title>
      </cc:Work>
    </rdf:RDF>
  </metadata>
  <g
     inkscape:label="Layer 1"
     inkscape:groupmode="layer"
     id="layer1"
     transform="translate(0,-201.74998)">
    <g
       id="g1355">
      <g
         id="g1378"
         transform="translate(-23.812501,1.965476)">
        <path
           style="fill:#eae0e5;fill-opacity:1;stroke:#9e6a6a;stroke-width:1.5875;stroke-linecap:round;stroke-linejoin:round;stroke-miterlimit:4;stroke-dasharray:none;stroke-opacity:0.95686275"
           d="m 30.313603,208.75524 h 12.561668 v 65.84685 h 34.632027 v 13.16098 h -47.06006 z"
           id="path815"
           inkscape:connector-curvature="0"
           sodipodi:nodetypes="ccccccc" />
        <path
           inkscape:connector-curvature="0"
           style="opacity:1;fill:#eae0e5;fill-opacity:1;fill-rule:nonzero;stroke:#9e6a6a;stroke-width:1.5875;stroke-linecap:round;stroke-linejoin:round;stroke-miterlimit:4;stroke-dasharray:none;stroke-opacity:0.95686275"
           d="m 75.700288,206.93003 a 30.201457,32.807335 0 0 0 -30.201258,32.8073 30.201457,32.807335 0 0 0 30.201258,32.8073 30.201457,32.807335 0 0 0 14.968596,-4.34134 l -8.534363,-7.92665 a 18.823508,21.876479 0 0 1 -6.434233,1.33739 18.823508,21.876479 0 0 1 -18.82314,-21.8767 18.823508,21.876479 0 0 1 18.82314,-21.87619 18.823508,21.876479 0 0 1 18.823657,21.87619 18.823508,21.876479 0 0 1 -3.305225,12.37909 l 8.325075,7.73234 a 30.201457,32.807335 0 0 0 6.358265,-20.11143 30.201457,32.807335 0 0 0 -30.201772,-32.8073 z"
           id="path896" />
        <path
           style="fill:#ebfee2;fill-opacity:1;stroke:#00d007;stroke-width:1.5875;stroke-linecap:round;stroke-linejoin:round;stroke-miterlimit:4;stroke-dasharray:none;stroke-opacity:1"
           d="m 149.31832,233.37458 -9.20412,-8.54867 -36.28637,39.06854 -19.974879,-18.55243 -8.27584,8.91037 29.081089,27.01015 z"
           id="path815-6-3"
           inkscape:connector-curvature="0"
           sodipodi:nodetypes="ccccccc" />
      </g>
    </g>
  </g>
</svg>
